<?xml version="1.0" encoding="UTF-8" standalone="no"?>
<!-- Created with Inkscape (http://www.inkscape.org/) -->

<svg
   version="1.1"
   id="svg1"
   width="491.82349"
   height="484.31772"
   viewBox="0 0 491.82349 484.31772"
   xmlns="http://www.w3.org/2000/svg"
   xmlns:svg="http://www.w3.org/2000/svg">
  <defs
     id="defs1" />
  <g
     id="g1"
     transform="translate(-10.088256,-15.840871)">
    <path
       style="fill:#030303;stroke:none"
       d="M 250,16.467588 C 211.97672,23.640867 222.88316,83.40536 261,76.53549 300.32886,69.447172 289.2074,9.07092 250,16.467588 M 204,139 c 14.2515,-2.45242 27.22136,-8.89746 42,-9.91049 22.59518,-1.54886 40.50586,6.21176 62,9.91049 0,-8.08582 -2.41721,-20.86096 2.00925,-27.96063 4.03891,-6.47809 12.28701,-10.6807 17.56558,-16.20914 11.0253,-11.54721 19.44479,-25.471345 23.84647,-40.830232 1.90722,-6.654968 5.30688,-15.460815 1.48919,-21.984558 -5.59097,-9.553955 -22.19742,-9.210114 -27.90201,0 -5.59985,9.041016 -5.9519,20.648376 -12.08718,29.984558 C 296.30267,87.28891 263.93768,99.70584 235,89.7716 217.52655,83.77301 202.40604,70.852262 194.4892,53.999998 c -3.41033,-7.25943 -3.64055,-17.837219 -8.88349,-23.891205 -5.87562,-6.784515 -19.34344,-6.92456 -25.18673,0 -5.67194,6.721497 -1.97034,16.458649 0.15972,23.891205 4.14084,14.448822 11.79873,27.902252 22.15046,38.830232 5.75497,6.07532 14.87753,11.17743 19.26158,18.20914 C 206.41716,118.13904 204,130.91412 204,139 m -76,104 c 1.42377,-33.0744 23.71864,-69.95404 51,-88 -6.39778,-7.51852 -18.70018,-8.99542 -23.55788,-18.01465 C 151.57741,129.80978 151.82253,119.85095 149.57254,112 145.55449,97.97964 137.83154,84.6647 127.91049,73.999998 117.52038,62.831083 95.85294,53.08029 93.18904,77 c -1.2977,11.65231 12.7423,19.0545 18.34645,28 10.07835,16.08728 13.49453,35.59424 8.57948,54 -7.78396,29.14914 -35.1101,49.99982 -65.11497,50.95679 -10.70982,0.34158 -21.58846,-6.60907 -32,-4.7284 -9.00504,1.62662 -15.79484,14.4281 -11.6821,22.76776 3.72411,7.55161 14.19093,9.47928 21.6821,11 13.57634,2.75602 28.43379,3.19587 42,0.11573 8.33112,-1.89154 17.63592,-7.62488 26,-7.96372 9.67691,-0.392 17.98929,9.25104 27,11.85184 m 205,-88 c 27.24976,18.02509 49.57767,54.9621 51,88 9.01071,-2.6008 17.32312,-12.24384 27,-11.85184 8.36404,0.33884 17.66891,6.07218 26,7.96372 13.56619,3.08014 28.42365,2.64029 42,-0.11573 7.49118,-1.52072 17.95798,-3.44836 21.6821,-11 4.11273,-8.33966 -2.67706,-21.14117 -11.6821,-22.76776 -10.41153,-1.88064 -21.29016,5.06998 -32,4.7284 C 426.99515,208.99982 399.66901,188.14914 391.88504,159 c -4.92514,-18.44357 -1.52933,-37.86423 8.57947,-54 5.6116,-8.95731 19.49078,-16.30438 18.33563,-28 C 416.42538,52.956175 394.33185,62.989866 384.08951,73.999998 374.16846,84.66473 366.44553,97.97961 362.42749,112 c -2.24997,7.85095 -2.00494,17.80981 -5.86963,24.98535 C 351.7002,146.00458 339.39777,147.48148 333,155 M 66,122.46759 c -37.31718,7.04007 -26.30922,66.58347 11,59.91666 40.39715,-7.2186 29.15248,-67.49161 -11,-59.91666 m 366,0.0509 c -38.26422,8.29917 -24.07681,67.84433 14,59.46604 39.03296,-8.58869 24.74417,-67.8693 -14,-59.46604 M 214,194 c 11.92065,4.03275 23.24292,7.99158 36,8 v -48 c -17.77243,2.67386 -31.58397,23.85425 -36,40 m 48,-40 v 48 c 12.75708,-0.008 24.07938,-3.96725 36,-8 -4.41599,-16.14578 -18.2276,-37.32614 -36,-40 m -73,23 v 1 l 15,9 15,-27 c -11.09421,3.03433 -21.3644,9.5282 -30,17 m 104,-17 15,27 15,-9 v -1 c -8.63562,-7.47183 -18.90576,-13.96564 -30,-17 m -142,92 h 39 c 0.14693,-17.7468 3.60291,-36.1214 9,-53 -4.59695,-2.82361 -13.68588,-12.07639 -18.96065,-11.83258 C 175.07834,187.3967 169.80341,197.28204 167.43594,201 157.81038,216.11627 151.77165,234.02802 151,252 m 162,-53 c 5.39703,16.87863 8.85312,35.25317 9,53 h 39 c -0.76923,-17.91263 -6.8414,-35.9324 -16.43594,-51 -2.3675,-3.71799 -7.64237,-13.6033 -12.60343,-13.83258 C 326.68591,186.92361 317.59689,196.17642 313,199 m -103,6 c -6.18942,14.38583 -6.78438,31.59644 -8,47 h 48 V 226 L 248.97221,215.60339 238,213.19598 210,205 m 52,47 h 48 c -1.2157,-15.40363 -1.81055,-32.61414 -8,-47 l -28,8.19598 -10.97223,2.40741 L 262,226 v 26 m -111,12 c 0.7691,17.91257 6.84143,35.9325 16.43594,51 2.36748,3.71796 7.64238,13.60327 12.60341,13.83258 C 185.31412,329.07635 194.40306,319.82361 199,317 c -5.39709,-16.8786 -8.85307,-35.2532 -9,-53 h -39 m 51,0 c 1.21562,15.40356 1.81058,32.61417 8,47 l 27,-8.07947 11.97221,-2.52392 L 250,290 v -26 h -48 m 60,0 v 26 l 1.02777,10.39661 L 275,302.92053 302,311 c 6.18942,-14.38586 6.7843,-31.59641 8,-47 h -48 m 60,0 c -0.14688,17.74683 -3.60297,36.12137 -9,53 4.59689,2.82361 13.68588,12.07635 18.96063,11.83258 C 336.92166,328.60327 342.19659,318.71796 344.56406,315 354.35977,299.61649 359.5715,282.1001 361,264 h -39 m -143,97 c -27.28139,-18.04599 -49.57623,-54.92563 -51,-88 -9.01071,2.6008 -17.3231,12.24387 -27,11.85187 -8.03334,-0.32544 -17.03628,-5.81299 -25,-7.72147 -13.89573,-3.33005 -29.06868,-2.97159 -43,-0.12655 -7.49295,1.53021 -17.95479,3.44189 -21.6821,11 -4.11273,8.33966 2.67705,21.14117 11.6821,22.76776 10.41154,1.88061 21.29018,-5.06995 32,-4.7284 30.00487,0.95691 57.33102,21.80768 65.11497,50.95679 4.85917,18.19647 1.66299,38.1958 -8.65972,54 -5.69859,8.72461 -19.54097,16.55362 -18.26621,28 2.6639,23.91971 24.33133,14.16891 34.72145,3 9.9211,-10.66473 17.644,-23.97961 21.66205,-38 2.21611,-7.73276 1.86458,-17.98483 5.7307,-24.98535 C 160.26221,370.03528 172.58496,368.53882 179,361 m 205,-88 c -1.42233,33.0379 -23.75024,69.97491 -51,88 6.39346,7.46338 18.70392,9.00238 23.55786,18.01465 3.86469,7.1756 3.61966,17.13437 5.86963,24.98535 4.01804,14.02039 11.74097,27.33527 21.66202,38 10.3901,11.16895 32.05752,20.91968 34.72143,-3 1.2977,-11.65234 -12.74224,-19.0545 -18.34643,-28 -10.10877,-16.13577 -13.50461,-35.5564 -8.57947,-54 7.66556,-28.70581 35.2034,-50.60452 65.11496,-50.98148 10.6243,-0.13388 21.673,6.61844 32,4.75309 9.005,-1.62659 15.7948,-14.4281 11.6821,-22.76776 -3.7273,-7.55811 -14.18921,-9.46979 -21.6821,-11 -13.9313,-2.84504 -29.10428,-3.2035 -43,0.12655 -7.96365,1.90848 -16.96667,7.39603 -25,7.72147 -9.67691,0.392 -17.98929,-9.25107 -27,-11.85187 m -170,49 c 4.41599,16.14563 18.22763,37.32635 36,40 v -48 c -12.82761,0.008 -24.01675,3.94611 -36,8 m 48,-8 v 48 c 17.77237,-2.67368 31.58405,-23.85437 36,-40 -11.98322,-4.05389 -23.17242,-7.99152 -36,-8 m -73,24 v 1 c 8.63562,7.4718 18.90576,13.96564 30,17 l -15,-27 -15,9 m 119,-9 -15,27 c 11.09424,-3.03436 21.36441,-9.5282 30,-17 l -15,-10 m -239,4.43982 c -40.71561,6.21524 -30.35848,67.30823 10,60.23148 37.30902,-6.54203 27.34234,-65.9318 -10,-60.23148 m 367,0 c -40.5528,6.1904 -31.4433,66.2326 9,60.25925 37.56857,-5.54877 28.4736,-65.97959 -9,-60.25925 M 204,377 c 0,8.08588 2.41716,20.86096 -2.00926,27.96063 -3.85294,6.17987 -11.6409,10.01367 -16.70525,15.20911 C 173.8493,431.90204 165.0975,446.23236 160.5787,462 c -1.89205,6.60205 -5.34559,15.50119 -1.48919,21.95987 5.67502,9.50452 22.17911,9.2644 27.90201,0.0247 5.37547,-8.6788 5.71391,-19.96698 11.44442,-28.98456 16.09468,-25.32675 47.54517,-38.1517 76.56406,-29.56097 18.26031,5.40579 34.41168,19.32074 42.5108,36.56097 3.41034,7.25946 3.64054,17.83722 8.88349,23.8912 6.22119,7.18354 20.28708,6.76777 25.90277,-0.98535 4.74942,-6.5571 1.1178,-15.94961 -0.87576,-22.90585 -4.40168,-15.35889 -12.8212,-29.28308 -23.84647,-40.83026 -5.27863,-5.52847 -13.52664,-9.73093 -17.56558,-16.20911 C 305.58279,397.86093 308,385.08588 308,377 c -14.2515,2.45233 -27.22137,8.89752 -42,9.91049 -22.5952,1.54877 -40.5058,-6.21182 -62,-9.91049 m 47,62.46451 c -39.38387,7.0983 -28.18555,67.46054 11,60.0679 38.02863,-7.17438 27.05615,-66.92691 -11,-60.0679 z"
       id="path1" />
  </g>
</svg>
