<svg width="1066.667" height="1066.667" xmlns="http://www.w3.org/2000/svg">
    <defs>
        <linearGradient id="prefix__a" x1="0" x2="0" y1="0" y2="1">
            <stop offset="0%" stop-color="#354ba1" />
            <stop offset="50%" stop-color="#178ed2" />
            <stop offset="100%" stop-color="#00c3fd" />
        </linearGradient>
    </defs>
    <path
        d="M490.372 865.628l-25.039-25.04V668.746l25.04-25.04 25.038-25.038h35.844l25.04 25.039 25.038 25.039v171.844l-25.039 25.039-25.039 25.039h-35.844zm-25.039-333.282V431.358l25.654-25.679L516.641 380H550.026l25.654 25.68 25.653 25.678v100.988c0 55.543-.444 100.987-.986 100.987-.543 0-11.95-10.95-25.347-24.333l-24.36-24.333h-34.613L491.667 609c-13.398 13.383-24.804 24.333-25.347 24.333-.543 0-.987-45.444-.987-100.987zm-305.777 68.098c-.49-.488-.89-15.936-.89-34.327v-33.44l178.34-178.338L515.345 176H551.323l178.362 178.362 178.362 178.363-.357 33.97-.357 33.972-25.289.364-25.288.363-85.402-85.363-85.402-85.364h-50.634l-41.985-42-41.984-42h-36.031l-41.985 42-41.984 42h-50.634L295.344 516l-85.372 85.333h-24.764c-13.62 0-25.164-.4-25.652-.889z"
        fill="#f9fbfb" />
    <path
        d="M457.614 953c-31.785-31.717-58.484-58.867-59.332-60.333-1.153-1.993-1.43-47.208-1.098-178.83.354-140.447.104-176.374-1.233-177.2-1.134-.702-28.695 26.232-85.147 83.208l-83.47 84.245-51.368-.045-51.368-.045-34.462-34.556-34.463-34.556.58-50.937.578-50.937 143.918-143.429C334.502 256.286 443.945 147.594 495.637 96.719l21.624-21.282 12.37-.28c6.803-.154 14.698.317 17.544 1.046 5.712 1.465 40.004 35.179 321.18 315.762l141.02 140.724.313 51.636.312 51.636-33.99 34.02L942.02 704l-51.343.03-51.344.032-83.45-84.244c-54.774-55.296-84.009-83.899-85.077-83.238-1.27.784-1.574 39.77-1.385 177.325.171 124.267-.183 177.073-1.198 178.873-.793 1.405-27.419 28.504-59.17 60.221l-57.729 57.667h-35.92zm118.68-87.372l25.04-25.04V668.746l-25.04-25.04-25.039-25.038h-35.844l-25.039 25.039-25.039 25.039v171.844l25.04 25.039 25.038 25.039h35.844zM491.667 609l24.36-24.333h34.613L575 609c13.398 13.383 24.804 24.333 25.347 24.333.542 0 .986-45.444.986-100.987V431.358L575.68 405.68 550.026 380H516.64l-25.654 25.68-25.654 25.678v100.988c0 55.543.444 100.987.987 100.987.543 0 11.95-10.95 25.347-24.333zm-196.323-93l85.371-85.333h50.634l41.984-42 41.984-42h36.032l41.984 42 41.985 42h50.634l85.402 85.364 85.401 85.363 25.29-.363 25.288-.364.357-33.971.357-33.971-178.362-178.363L551.322 176H515.345l-178.34 178.339-178.338 178.339v33.439c0 18.391.4 33.839.889 34.327.488.49 12.032.89 25.652.89h24.764z"
        fill="url(#prefix__a)" />
    <path
        d="M496.667 1057.505c-4.309-2.677-50.943-49.139-52.987-52.79-.982-1.755-34.437-35.754-42.444-43.135-2.979-2.746-27.08-26.725-28.57-28.423-.733-.837-7.18-7.478-14.326-14.758l-12.993-13.237-.34-124.662-.34-124.662-5 4.448c-2.75 2.447-5 5.196-5 6.11 0 .914-1.489 2.34-3.308 3.168-1.82.83-3.702 2.766-4.183 4.305-1.18 3.766-26.765 34.48-30 36.014-1.412.67-2.914 2.598-3.338 4.286-.423 1.688-1.86 3.415-3.192 3.838-1.333.423-3.016 2.394-3.74 4.38-1.466 4.021-8.69 12.28-10.741 12.28-.725 0-1.743 1.337-2.262 2.972-1.403 4.42-7.408 11.617-11.503 13.787-3.002 1.59-16.31 1.907-80.062 1.907h-76.46l-50.273-50.178-50.272-50.178V515.34l255.004-255.004L515.341 5.333h35.985l255.003 255.004 255.004 255.004v137.921l-50.805 50.703-50.806 50.702H821.987l-49.32-49.334C745.54 678.2 722.894 656 722.34 656c-.554 0-1.007 56.545-1.007 125.655v125.654l-32.662 32.012c-17.964 17.607-52.814 51.962-77.445 76.346L566.443 1060h-32.888c-29.763 0-33.268-.241-36.888-2.49zM609.053 953c31.751-31.717 58.377-58.816 59.17-60.22 1.015-1.8 1.369-54.607 1.198-178.874-.189-137.554.116-176.54 1.385-177.325 1.068-.66 30.303 27.942 85.077 83.238l83.45 84.244 51.344-.032 51.343-.03 33.99-34.02 33.99-34.02-.313-51.636-.312-51.636-141.02-140.724C587.178 111.382 552.886 77.668 547.174 76.203c-2.846-.73-10.741-1.2-17.545-1.046l-12.37.28-21.623 21.282c-51.692 50.875-161.135 159.567-294.888 292.866L56.83 533.015l-.579 50.936-.579 50.937 34.463 34.556L124.598 704l51.368.045 51.367.045 83.47-84.245c56.453-56.976 84.014-83.91 85.148-83.209 1.337.827 1.587 36.754 1.233 177.2-.332 131.623-.055 176.838 1.098 178.83.848 1.467 27.547 28.617 59.332 60.334l57.79 57.667h35.92z"
        fill="#221f21" />
</svg>