<?xml version="1.0" encoding="UTF-8" standalone="no"?>
<!-- Created with Inkscape (http://www.inkscape.org/) -->

<svg version="1.1" id="svg1" width="1066.6667" height="1066.6667" viewBox="0 0 1066.6667 1066.6667"
   sodipodi:docname="arrow.svg" inkscape:export-filename="arrow.svg" inkscape:export-xdpi="96" inkscape:export-ydpi="96"
   xmlns:inkscape="http://www.inkscape.org/namespaces/inkscape"
   xmlns:sodipodi="http://sodipodi.sourceforge.net/DTD/sodipodi-0.dtd" xmlns="http://www.w3.org/2000/svg"
   xmlns:svg="http://www.w3.org/2000/svg">
   <defs id="defs1">
      <linearGradient id="Gradient2" x1="0" x2="0" y1="0" y2="1">
         <stop offset="0%" stop-color="#354ba1" />
         <stop offset="50%" stop-color="#178ed2" />
         <stop offset="100%" stop-color="#00c3fd" />
      </linearGradient>
   </defs>
   <sodipodi:namedview id="namedview1" pagecolor="#ffffff" bordercolor="#000000" borderopacity="0.25"
      inkscape:showpageshadow="2" inkscape:pageopacity="0.0" inkscape:pagecheckerboard="0" inkscape:deskcolor="#d1d1d1">
      <inkscape:page x="0" y="0" width="1066.6667" height="1066.6667" id="page2" margin="0" bleed="0" />
   </sodipodi:namedview>
   <g inkscape:groupmode="layer" inkscape:label="Image" id="g1">
      <path style="display:inline;fill:#f9fbfb"
         d="m 490.37233,865.62777 -25.03896,-25.03896 v -85.92209 -85.92208 l 25.03896,-25.03896 25.03896,-25.03897 h 17.92208 17.92208 l 25.03897,25.03897 25.03896,25.03896 v 85.92208 85.92209 l -25.03896,25.03896 -25.03897,25.03896 H 533.33337 515.41129 Z M 465.33337,532.34588 v -100.9875 l 25.65384,-25.67918 25.65385,-25.67917 h 16.69231 16.69232 l 25.65384,25.67917 25.65385,25.67918 v 100.9875 c 0,55.54313 -0.44408,100.9875 -0.98684,100.9875 -0.54275,0 -11.94884,-10.95 -25.34686,-24.33333 L 550.63965,584.66671 H 533.33337 516.0271 l -24.36003,24.33334 c -13.39802,13.38333 -24.80411,24.33333 -25.34687,24.33333 -0.54276,0 -0.98683,-45.44437 -0.98683,-100.9875 z m -305.7778,68.09861 c -0.48889,-0.48889 -0.88889,-15.93638 -0.88889,-34.32775 V 532.67788 L 337.00561,354.33895 515.34455,176.00001 h 17.98882 17.98883 l 178.36247,178.36247 178.36247,178.36247 -0.35687,33.97088 -0.35687,33.97088 -25.28895,0.36382 -25.28895,0.36381 -85.40195,-85.36382 -85.40195,-85.36382 h -25.31705 -25.31704 l -41.98413,-42 -41.98413,-42.00001 H 533.33337 515.3175 l -41.98413,42.00001 -41.98413,42 h -25.31705 -25.31704 l -85.37146,85.33334 -85.37145,85.33334 h -24.76389 c -13.62014,0 -25.16389,-0.4 -25.65278,-0.88889 z"
         id="path5" />
      <path style="display:inline;fill:url(#Gradient2)"
         d="M 457.61426,953.00007 C 425.82948,921.2834 399.1298,894.1334 398.28163,892.66673 c -1.15221,-1.99243 -1.42983,-47.20733 -1.09801,-178.83036 0.35406,-140.44623 0.10411,-176.37382 -1.23276,-177.20005 -1.13409,-0.7009 -28.69475,26.23228 -85.14718,83.20864 l -83.47033,84.245 -51.36746,-0.0449 -51.36745,-0.045 L 90.135905,669.44398 55.673372,634.8879 56.25208,583.95098 56.830788,533.01407 200.74874,389.58497 C 334.502,256.28604 443.94474,147.59381 495.63727,96.71868 l 21.62324,-21.28133 12.36977,-0.280449 c 6.80337,-0.154247 14.6985,0.316679 17.54474,1.046502 5.71213,1.464688 40.00417,35.178327 321.17917,315.761857 l 141.02081,140.72416 0.3125,51.63571 0.3126,51.6357 -33.99022,34.01961 -33.9902,34.01961 -51.34314,0.0313 -51.34314,0.0313 -83.45009,-84.24387 c -54.77463,-55.29565 -84.00925,-83.89829 -85.07733,-83.23818 -1.26947,0.78457 -1.57394,39.77131 -1.38486,177.32513 0.17083,124.26703 -0.18296,177.07345 -1.19839,178.87354 -0.79243,1.40475 -27.41872,28.50409 -59.16953,60.22076 l -57.72875,57.66667 h -17.95984 -17.95984 z m 118.68016,-87.3723 25.03896,-25.03896 v -85.92209 -85.92208 l -25.03896,-25.03896 -25.03897,-25.03897 h -17.92208 -17.92208 l -25.03896,25.03897 -25.03896,25.03896 v 85.92208 85.92209 l 25.03896,25.03896 25.03896,25.03896 h 17.92208 17.92208 z M 491.66707,609.00005 516.0271,584.66671 h 17.30627 17.30628 l 24.36003,24.33334 c 13.39802,13.38333 24.80411,24.33333 25.34686,24.33333 0.54276,0 0.98684,-45.44437 0.98684,-100.9875 V 431.35838 L 575.67953,405.6792 550.02569,380.00003 h -16.69232 -16.69231 l -25.65385,25.67917 -25.65384,25.67918 v 100.9875 c 0,55.54313 0.44407,100.9875 0.98683,100.9875 0.54276,0 11.94885,-10.95 25.34687,-24.33333 z M 295.34369,516.00004 380.71515,430.6667 h 25.31704 25.31705 l 41.98413,-42 41.98413,-42.00001 h 18.01587 18.01588 l 41.98413,42.00001 41.98413,42 h 25.31704 25.31705 l 85.40195,85.36382 85.40195,85.36382 25.28895,-0.36381 25.28895,-0.36382 0.35687,-33.97088 0.35687,-33.97088 L 729.68467,354.36248 551.3222,176.00001 H 533.33337 515.34455 L 337.00561,354.33895 158.66668,532.67788 v 33.43886 c 0,18.39137 0.4,33.83886 0.88889,34.32775 0.48889,0.48889 12.03264,0.88889 25.65278,0.88889 h 24.76389 z"
         id="path4" />
      <path style="fill:#221f21"
         d="m 496.6667,1057.5048 c -4.30863,-2.677 -50.94278,-49.1383 -52.98631,-52.7899 -0.98208,-1.7549 -34.43695,-35.75389 -42.44465,-43.13501 -2.97849,-2.74543 -27.08063,-26.72457 -28.56904,-28.42324 -0.73334,-0.83693 -7.18027,-7.478 -14.32652,-14.75794 l -12.99318,-13.23625 -0.34015,-124.66237 -0.34016,-124.66238 -5,4.44838 c -2.75,2.4466 -5,5.19599 -5,6.10975 0,0.91376 -1.48846,2.33957 -3.3077,3.16847 -1.81924,0.8289 -3.70177,2.76604 -4.1834,4.30475 -1.17874,3.76584 -26.76414,34.48032 -30.00022,36.01435 -1.41166,0.66917 -2.91325,2.59767 -3.33688,4.28555 -0.42363,1.68788 -1.86044,3.41489 -3.19291,3.83779 -1.33247,0.42291 -3.01536,2.39442 -3.73976,4.38112 -1.46593,4.0204 -8.68991,12.27885 -10.74079,12.27885 -0.72525,0 -1.74311,1.33738 -2.2619,2.97194 -1.40273,4.41963 -7.40849,11.61763 -11.50356,13.7872 -3.00197,1.59045 -16.31015,1.90753 -80.06121,1.90753 H 105.87761 L 55.605473,703.1551 5.3333337,652.97682 V 584.15901 515.3412 L 260.33726,260.33726 515.3412,5.3333337 h 17.99217 17.99218 L 806.32948,260.33726 1061.3334,515.3412 v 68.9606 68.96061 l -50.8056,50.70216 -50.80554,50.70215 H 890.8544 821.98655 l -49.31982,-49.33333 c -27.12591,-27.13334 -49.77287,-49.33334 -50.32658,-49.33334 -0.55372,0 -1.00676,56.54459 -1.00676,125.65465 v 125.65465 l -32.66223,32.01203 c -17.96423,17.60661 -52.8146,51.96203 -77.44527,76.34532 l -44.78304,44.3334 h -32.88807 c -29.76319,0 -33.26814,-0.2411 -36.88808,-2.4903 z M 609.0532,953.00007 c 31.75081,-31.71667 58.3771,-58.81601 59.16953,-60.22076 1.01543,-1.80009 1.36922,-54.60651 1.19839,-178.87354 -0.18908,-137.55382 0.11539,-176.54056 1.38486,-177.32513 1.06808,-0.66011 30.3027,27.94253 85.07733,83.23818 l 83.45009,84.24387 51.34314,-0.0313 51.34314,-0.0313 33.9902,-34.01961 33.99022,-34.01961 -0.3126,-51.6357 -0.3125,-51.63571 -141.02081,-140.7242 C 587.17919,111.38173 552.88715,77.668091 547.17502,76.203403 544.32878,75.47358 536.43365,75.002654 529.63028,75.156901 L 517.26051,75.43735 495.63727,96.71868 C 443.94474,147.59381 334.502,256.28604 200.74874,389.58497 l -143.917952,143.4291 -0.578708,50.93691 -0.578708,50.93692 34.462533,34.55608 34.462535,34.55607 51.36745,0.045 51.36746,0.0449 83.47033,-84.245 c 56.45243,-56.97636 84.01309,-83.90954 85.14718,-83.20864 1.33687,0.82623 1.58682,36.75382 1.23276,177.20005 -0.33182,131.62303 -0.0542,176.83793 1.09801,178.83036 0.84817,1.46667 27.54785,28.61667 59.33263,60.33334 l 57.79051,57.66664 h 17.95984 17.95984 z"
         id="path2" />
   </g>
</svg>